# xmcd CD database file
#
# Track frame offsets:
#	150
#	18777
#	36694
#	60346
#	78324
#	107909
#	124619
#	128570
#	133544
#	141720
#	158367
#	170047
#	180919
#	187785
#	199936
#	223400
#	236462
#	246633
#	284368
#	304055
#
# Disc length: 4533 seconds
#
# Revision: 0
# Processed by: cddbd v1.5.1PL0 Copyright (c) Steve Scherf et al.
# Submitted via: CDex 1.51
#
DISCID=2011b314
DTITLE=Build An Ark - Peace With Every Step
DYEAR=2004
DGENRE=Jazz
TTITLE0=You've Gotta Have Freedom
TTITLE1=Vibes From The Tribe
TTITLE2=Conversations
TTITLE3=Precious,Priceless
TTITLE4=Love Is Our Nationality
TTITLE5=Pure Imagination/Tortoise And The Hare
TTITLE6=Drumprovise
TTITLE7=Japan
TTITLE8=Peace With Every Step
TTITLE9=Equipoise
TTITLE10=Collective
TTITLE11=Peace And Love
TTITLE12=The Stars Are Singing Too
TTITLE13=Nu Baya Roots
TTITLE14=Village Soft
TTITLE15=The Blessing Song
TTITLE16=Guidance
TTITLE17=Always There
TTITLE18=Mother
TTITLE19=You've Gotta Have Freedom
EXTD=YEAR: 2004
EXTT0=
EXTT1=
EXTT2=
EXTT3=
EXTT4=
EXTT5=
EXTT6=
EXTT7=
EXTT8=
EXTT9=
EXTT10=
EXTT11=
EXTT12=
EXTT13=
EXTT14=
EXTT15=
EXTT16=
EXTT17=
EXTT18=
EXTT19=
PLAYORDER=
